<?xml version="1.0" encoding="UTF-8"?><svg id="Layer_2" xmlns="http://www.w3.org/2000/svg" viewBox="0 0 831.72 241.27"><defs><style>.cls-1{fill:#3e36b0;}</style></defs><g id="Layer_1-2"><g><path class="cls-1" d="m82.04,241.27c-23.22,0-44.04-.97-53.05-2.48-16.79-2.87-28.98-17.42-28.98-34.62V7.4C0,3.31,3.31,0,7.4,0h19.45c4.09,0,7.4,3.31,7.4,7.4v189.2c0,7.62,5.72,14.01,13.3,14.89,4.49.57,22.64.62,28.11.62,14.82,0,.95-.25,5.24-.83,7.21-1.04,12.63-7.41,12.63-14.82V7.4c0-4.07,3.33-7.4,7.4-7.4h19.45c4.09,0,7.4,3.31,7.4,7.4v197.17c0,17.07-12.39,31.92-28.83,34.54-8.21,1.33,4.27,2.15-16.91,2.15Z"/><path class="cls-1" d="m263.85,92.67v134.71c0,3.78-3.07,6.85-6.85,6.85h-20.55c-3.78,0-6.85-3.07-6.85-6.85V92.67c0-3.84-2.46-7.31-5.85-8.25-1.4-.45-3.08-.69-4.87-.69-4.86,0-10.39,1.8-16.01,5.21-13.8,8.24-22.39,24.15-22.39,41.49v96.95c0,3.78-3.07,6.85-6.85,6.85h-20.55c-3.78,0-6.85-3.06-6.85-6.85l-.07-164.02c0-1.61,1.3-2.91,2.91-2.91h28.43c1.6,0,2.91,1.31,2.91,2.91v18.59c0,1.4,1.75,2.04,2.65.96l3.23-3.87c17.27-20.69,33.63-23.48,47.34-23.48,19.63,0,30.21,19.12,30.19,37.1Z"/><path class="cls-1" d="m316.05,64.81l.07,167.48c0,1.46-1.18,2.63-2.63,2.63h-28.98c-1.46,0-2.63-1.18-2.63-2.63l-.07-167.78c0-1.84,1.49-3.34,3.34-3.34h27.27c2.01,0,3.64,1.63,3.64,3.64Z"/><path class="cls-1" d="m462.24,64.7l-48.9,167.32c-.42,1.4-1.67,2.35-3.14,2.35h-33c-1.44,0-2.73-.97-3.15-2.35l-48.82-167.31c-.29-1-.11-2.05.52-2.89.63-.83,1.58-1.31,2.62-1.31h28.67c1.47,0,2.77.99,3.16,2.41l32.13,117.28c.38,1.39,2.36,1.39,2.74,0l32.1-117.28c.39-1.42,1.69-2.41,3.16-2.41h28.78c1.05,0,2,.48,2.63,1.31.63.84.81,1.89.51,2.89Z"/><path class="cls-1" d="m504.09,166.75v27.58c0,7.62,5.72,14.02,13.31,14.89,3.17.41,18.93.35,22.93-.17,7.34-.96,12.87-7.34,12.87-14.85v-6.07c0-.79.64-1.42,1.42-1.42h30.75c1.15,0,2.08.93,2.08,2.08v13.52c0,17.07-12.4,31.92-28.83,34.54-8.69,1.41-50.08,1.29-59.8-.33-16.79-2.86-28.98-17.42-28.98-34.62v-106.7c0-17.2,12.2-31.75,29-34.62,9.7-1.62,51.09-1.74,59.78-.35,16.44,2.63,28.83,17.49,28.83,34.55v60.08c0,4-3.24,7.25-7.24,7.25l-71.54.05c-2.54,0-4.59,2.06-4.59,4.6Zm0-64v28.29c0,2.03,1.66,3.69,3.69,3.68l44.77-.03c.36,0,.66-.3.66-.67v-31.14c0-7.51-5.53-13.89-12.87-14.85-3.99-.52-19.75-.59-22.98-.17-7.55.87-13.27,7.26-13.27,14.88h0Z"/><path class="cls-1" d="m701.27,62.44v31.36c0,.52-.2,1.01-.56,1.37-.36.36-.83.55-1.33.55-21.62,0-33.7,1.32-38.41,4.04-13.84,8.03-22.45,23.91-22.45,41.45v89.3c0,2.44-1.98,4.42-4.42,4.42h-25.41c-2.43,0-4.41-1.97-4.41-4.42l-.07-165.63c0-2.44,1.98-4.42,4.42-4.42h25.41c2.44,0,4.42,1.98,4.42,4.42v16.51c0,.92,1.15,1.33,1.74.61,4.9-5.99,20.42-21.51,49.86-21.51l8.91.03c1.15.03,2.31.7,2.31,1.92Z"/><path class="cls-1" d="m831.21,198.64c-2.75,24.35-22.36,37.09-40.31,37.09h-38.25c-25.8,0-43.89-7.35-43.89-42.98,0-2.18,1.84-3.9,4.02-3.9h27.68c1.72,0,3.79,1,3.79,2.72,0,8.67,3.66,9.92,13.19,9.92h23.18c8.34,0,13.47-1.74,15.66-5.33,1.05-1.72,1.87-4.63-.25-8.79-3.05-6.02-10.45-8.57-23.27-12.55-12.89-4.01-27.67-9.48-39.54-19.69-11.1-9.56-19.01-23.27-22.86-39.61-3.14-13.34.19-27.87,8.9-38.87,7.88-9.95,18.9-15.43,31.01-15.43h35.56c25.95,0,38.92,11.6,38.92,38.03,0,2.39-1.64,4.44-4.03,4.42l-25.39-.19c-1.56-.01-3.61-.72-3.61-2.39,0-6.11-7.54-5.63-9.89-5.63-3.15,0-30.39-.17-31.03-.07-3.39.51-5.85,2.39-6.93,5.29-3.2,8.55,7,23.56,8.56,25.39,6.35,7.46,15.2,10.59,24.57,13.9,1.88.67,3.79,1.34,5.74,2.08,40.31,15.08,51.63,28.3,48.43,56.58Z"/><g><path class="cls-1" d="m275.85,36.67v12.81s12.29-5.12,23.2-5.12,23.19,5.12,23.19,5.12v-13s-11.72-6.21-23.37-6.21-23.01,6.39-23.01,6.39Z"/><path class="cls-1" d="m335.26,28.58h0s-2.01-1.13-2.01-1.13l-2.43-1.35-2.3-1.27-3.38-1.87-27.07-15.01-40.01,22.9,15.11,6.86v-2.22s12.67-7.12,25.67-7.12,26.06,6.92,26.06,6.92v3.88l5.79-3.1,9.15-4.95-4.59-2.53Z"/></g></g></g></svg>